<mxfile host="app.diagrams.net" modified="2020-10-19T03:09:50.502Z" agent="5.0 (Windows NT 10.0; Win64; x64) AppleWebKit/537.36 (KHTML, like Gecko) Chrome/72.0.3626.119 Safari/537.36" etag="TXyuUc7g3YJlpvvy5_p3" version="13.7.9" type="github">
  <diagram id="zA_sVHoq4wZd4_OAZmlq" name="第 1 页">
    <mxGraphModel dx="1422" dy="762" grid="1" gridSize="10" guides="1" tooltips="1" connect="1" arrows="1" fold="1" page="1" pageScale="1" pageWidth="827" pageHeight="1169" math="0" shadow="0">
      <root>
        <mxCell id="0" />
        <mxCell id="1" parent="0" />
        <mxCell id="ARVKkbmmQ180QZMnZLw4-3" style="edgeStyle=orthogonalEdgeStyle;rounded=0;orthogonalLoop=1;jettySize=auto;html=1;" edge="1" parent="1" source="ARVKkbmmQ180QZMnZLw4-1" target="ARVKkbmmQ180QZMnZLw4-2">
          <mxGeometry relative="1" as="geometry">
            <Array as="points">
              <mxPoint x="320" y="180" />
              <mxPoint x="320" y="180" />
            </Array>
          </mxGeometry>
        </mxCell>
        <mxCell id="ARVKkbmmQ180QZMnZLw4-4" value="token+唯一标识认证" style="edgeLabel;html=1;align=center;verticalAlign=middle;resizable=0;points=[];" vertex="1" connectable="0" parent="ARVKkbmmQ180QZMnZLw4-3">
          <mxGeometry x="0.0808" y="-36" relative="1" as="geometry">
            <mxPoint x="-10.5" y="-46" as="offset" />
          </mxGeometry>
        </mxCell>
        <mxCell id="ARVKkbmmQ180QZMnZLw4-10" style="edgeStyle=orthogonalEdgeStyle;rounded=0;orthogonalLoop=1;jettySize=auto;html=1;" edge="1" parent="1" source="ARVKkbmmQ180QZMnZLw4-1" target="ARVKkbmmQ180QZMnZLw4-2">
          <mxGeometry relative="1" as="geometry">
            <Array as="points">
              <mxPoint x="300" y="300" />
              <mxPoint x="300" y="300" />
            </Array>
          </mxGeometry>
        </mxCell>
        <mxCell id="ARVKkbmmQ180QZMnZLw4-11" value="token+唯一标识认证" style="edgeLabel;html=1;align=center;verticalAlign=middle;resizable=0;points=[];" vertex="1" connectable="0" parent="ARVKkbmmQ180QZMnZLw4-10">
          <mxGeometry x="0.0962" relative="1" as="geometry">
            <mxPoint as="offset" />
          </mxGeometry>
        </mxCell>
        <mxCell id="ARVKkbmmQ180QZMnZLw4-1" value=":客户端" style="shape=umlLifeline;perimeter=lifelinePerimeter;whiteSpace=wrap;html=1;container=1;collapsible=0;recursiveResize=0;outlineConnect=0;" vertex="1" parent="1">
          <mxGeometry x="130" y="110" width="100" height="300" as="geometry" />
        </mxCell>
        <mxCell id="ARVKkbmmQ180QZMnZLw4-8" style="edgeStyle=orthogonalEdgeStyle;rounded=0;orthogonalLoop=1;jettySize=auto;html=1;" edge="1" parent="1" source="ARVKkbmmQ180QZMnZLw4-2" target="ARVKkbmmQ180QZMnZLw4-1">
          <mxGeometry relative="1" as="geometry">
            <Array as="points">
              <mxPoint x="310" y="230" />
              <mxPoint x="310" y="230" />
            </Array>
          </mxGeometry>
        </mxCell>
        <mxCell id="ARVKkbmmQ180QZMnZLw4-9" value="认证通过，携带唯一标识" style="edgeLabel;html=1;align=center;verticalAlign=middle;resizable=0;points=[];" vertex="1" connectable="0" parent="ARVKkbmmQ180QZMnZLw4-8">
          <mxGeometry x="0.1269" y="-1" relative="1" as="geometry">
            <mxPoint x="16.5" y="11" as="offset" />
          </mxGeometry>
        </mxCell>
        <mxCell id="ARVKkbmmQ180QZMnZLw4-16" style="edgeStyle=orthogonalEdgeStyle;rounded=0;orthogonalLoop=1;jettySize=auto;html=1;" edge="1" parent="1" source="ARVKkbmmQ180QZMnZLw4-2" target="ARVKkbmmQ180QZMnZLw4-1">
          <mxGeometry relative="1" as="geometry">
            <Array as="points">
              <mxPoint x="290" y="360" />
              <mxPoint x="290" y="360" />
            </Array>
          </mxGeometry>
        </mxCell>
        <mxCell id="ARVKkbmmQ180QZMnZLw4-17" value="认证不通过" style="edgeLabel;html=1;align=center;verticalAlign=middle;resizable=0;points=[];" vertex="1" connectable="0" parent="ARVKkbmmQ180QZMnZLw4-16">
          <mxGeometry x="0.1577" y="-2" relative="1" as="geometry">
            <mxPoint x="21.5" y="12" as="offset" />
          </mxGeometry>
        </mxCell>
        <mxCell id="ARVKkbmmQ180QZMnZLw4-2" value=":服务端" style="shape=umlLifeline;perimeter=lifelinePerimeter;whiteSpace=wrap;html=1;container=1;collapsible=0;recursiveResize=0;outlineConnect=0;" vertex="1" parent="1">
          <mxGeometry x="390" y="110" width="100" height="300" as="geometry" />
        </mxCell>
        <mxCell id="ARVKkbmmQ180QZMnZLw4-6" value="检测token+唯一标识" style="html=1;points=[];perimeter=orthogonalPerimeter;" vertex="1" parent="ARVKkbmmQ180QZMnZLw4-2">
          <mxGeometry x="60" y="80" width="10" height="40" as="geometry" />
        </mxCell>
        <mxCell id="ARVKkbmmQ180QZMnZLw4-7" value="self call" style="edgeStyle=orthogonalEdgeStyle;html=1;align=left;spacingLeft=2;endArrow=block;rounded=0;entryX=1;entryY=0;" edge="1" target="ARVKkbmmQ180QZMnZLw4-6" parent="ARVKkbmmQ180QZMnZLw4-2">
          <mxGeometry relative="1" as="geometry">
            <mxPoint x="40" y="70" as="sourcePoint" />
            <Array as="points">
              <mxPoint x="90" y="70" />
            </Array>
          </mxGeometry>
        </mxCell>
        <mxCell id="ARVKkbmmQ180QZMnZLw4-14" value="检测token+唯一标识" style="html=1;points=[];perimeter=orthogonalPerimeter;" vertex="1" parent="ARVKkbmmQ180QZMnZLw4-2">
          <mxGeometry x="60" y="210" width="10" height="40" as="geometry" />
        </mxCell>
        <mxCell id="ARVKkbmmQ180QZMnZLw4-15" value="self call" style="edgeStyle=orthogonalEdgeStyle;html=1;align=left;spacingLeft=2;endArrow=block;rounded=0;entryX=1;entryY=0;" edge="1" target="ARVKkbmmQ180QZMnZLw4-14" parent="ARVKkbmmQ180QZMnZLw4-2">
          <mxGeometry relative="1" as="geometry">
            <mxPoint x="40" y="190" as="sourcePoint" />
            <Array as="points">
              <mxPoint x="90" y="190" />
            </Array>
          </mxGeometry>
        </mxCell>
        <mxCell id="ARVKkbmmQ180QZMnZLw4-5" style="edgeStyle=orthogonalEdgeStyle;rounded=0;orthogonalLoop=1;jettySize=auto;html=1;" edge="1" parent="1" source="ARVKkbmmQ180QZMnZLw4-2" target="ARVKkbmmQ180QZMnZLw4-2">
          <mxGeometry relative="1" as="geometry">
            <Array as="points">
              <mxPoint x="480" y="160" />
              <mxPoint x="480" y="170" />
            </Array>
          </mxGeometry>
        </mxCell>
      </root>
    </mxGraphModel>
  </diagram>
</mxfile>
